<svg version="1.2" xmlns="http://www.w3.org/2000/svg" viewBox="0 0 128 128" width="128" height="128"><defs><linearGradient id="P" gradientUnits="userSpaceOnUse"/><linearGradient id="g1" x2="1" href="#P" gradientTransform="matrix(56.529,49.068,-77.069,88.789,10.337,15.191)"><stop stop-color="#b3b3b3"/><stop offset="1" stop-color="#474849"/></linearGradient><linearGradient id="g2" x2="1" href="#P" gradientTransform="matrix(42.529,42.529,-68.762,68.762,53.674,55.932)"><stop stop-color="#fff600"/><stop offset=".14" stop-color="#fff600"/><stop offset=".14" stop-color="#000000"/><stop offset=".29" stop-color="#000000"/><stop offset=".29" stop-color="#faf100"/><stop offset=".43" stop-color="#faf100"/><stop offset=".43" stop-color="#000000"/><stop offset=".57" stop-color="#000000"/><stop offset=".57" stop-color="#f9f000"/><stop offset=".71" stop-color="#f9f000"/><stop offset=".71" stop-color="#070700"/><stop offset=".86" stop-color="#070700"/><stop offset=".86" stop-color="#fbf200"/><stop offset="1" stop-color="#fbf200"/></linearGradient></defs><style>.a{fill:url(#g1)}.b{fill:url(#g2)}</style><path class="a" d="m63.4 12.2c-4.2 0.1-8.3 0.4-11.8 1.1-10.5 1.8-12.4 5.7-12.4 12.8v9.4h24.7v3.1h-33.9c-7.2 0-13.5 4.4-15.4 12.6-2.3 9.4-2.4 15.2 0 25.1 1.7 7.3 5.9 12.5 13.1 12.5h8.5v-11.3c0-8.2 7-15.3 15.4-15.3h24.7c6.8 0 12.3-5.7 12.3-12.6v-23.5c0-6.7-5.6-11.7-12.3-12.8-4.3-0.8-8.7-1.1-12.9-1.1zm-13.4 7.6c2.6 0 4.7 2.1 4.7 4.7 0 2.6-2.1 4.7-4.7 4.7-2.5 0-4.6-2.1-4.6-4.7 0-2.6 2.1-4.7 4.6-4.7z"/><path class="b" d="m91.7 38.6v11c0 8.5-7.2 15.7-15.4 15.7h-24.7c-6.8 0-12.4 5.7-12.4 12.5v23.5c0 6.7 5.9 10.7 12.4 12.6 7.8 2.3 15.3 2.7 24.7 0 6.2-1.8 12.3-5.5 12.3-12.6v-9.4h-24.7v-3.1h37c7.2 0 9.9-5 12.4-12.5 2.6-7.8 2.5-15.2 0-25.1-1.8-7.2-5.2-12.6-12.4-12.6 0 0-9.2 0-9.2 0zm-13.9 59.6c2.6 0 4.6 2.1 4.6 4.7 0 2.6-2 4.7-4.6 4.7-2.5 0-4.6-2.1-4.6-4.7 0-2.6 2.1-4.7 4.6-4.7z"/></svg>